<?xml version="1.0" standalone="no"?>
<!DOCTYPE svg PUBLIC "-//W3C//DTD SVG 20010904//EN"
 "http://www.w3.org/TR/2001/REC-SVG-20010904/DTD/svg10.dtd">
<svg version="1.0" xmlns="http://www.w3.org/2000/svg"
 width="3000.000000pt" height="2000.000000pt" viewBox="0 0 3000.000000 2000.000000"
 preserveAspectRatio="xMidYMid meet">

<g transform="translate(0.000000,2000.000000) scale(0.100000,-0.100000)"
fill="#000000" stroke="none">
<path d="M17635 12473 c-252 -34 -482 -165 -627 -357 -284 -375 -304 -974 -45
-1378 48 -75 158 -191 232 -243 273 -193 653 -236 986 -109 308 116 530 407
594 778 19 114 20 347 0 459 -79 456 -374 769 -792 842 -78 14 -273 18 -348 8z
m276 -387 c148 -32 263 -121 336 -262 64 -123 85 -212 90 -394 6 -193 -14
-306 -76 -435 -96 -198 -253 -295 -476 -295 -156 0 -267 43 -365 141 -139 139
-210 396 -182 656 14 137 33 208 81 308 109 229 334 335 592 281z"/>
<path d="M4625 12455 c-246 -55 -441 -224 -525 -453 -139 -382 52 -785 442
-930 l73 -27 980 -3 979 -2 -1485 -1488 c-1550 -1553 -1518 -1519 -1576 -1664
-161 -397 72 -851 493 -958 189 -49 404 -13 571 96 38 24 567 546 1535 1513
l1477 1475 3 -964 3 -965 24 -70 c69 -208 188 -347 376 -441 436 -217 956 62
1024 550 15 108 15 3614 0 3722 -38 278 -225 500 -497 593 l-77 26 -1880 2
c-1546 1 -1891 -1 -1940 -12z"/>
<path d="M19650 11837 c-122 -41 -231 -131 -289 -237 l-31 -55 0 138 0 137
-190 0 -190 0 0 -755 0 -755 198 2 197 3 5 425 c6 401 7 428 27 482 29 78 39
94 86 145 79 85 205 124 345 106 l72 -9 0 192 c0 190 0 192 -22 198 -48 13
-145 5 -208 -17z"/>
<path d="M20626 11850 c-316 -50 -502 -201 -540 -437 l-6 -43 217 0 218 0 17
59 c35 119 131 167 318 159 132 -5 182 -28 218 -98 33 -67 30 -130 -9 -175
-43 -49 -119 -70 -367 -100 -323 -40 -442 -78 -542 -171 -91 -85 -132 -220
-110 -360 34 -211 184 -335 443 -364 208 -24 431 29 578 136 l47 34 6 -37 c4
-21 12 -53 17 -70 l11 -33 220 0 c206 0 220 1 213 18 -38 92 -39 95 -44 637
l-6 530 -33 67 c-58 119 -169 192 -352 233 -88 19 -422 29 -514 15z m449
-1047 c-31 -106 -100 -175 -205 -204 -66 -18 -215 -16 -276 5 -110 36 -155
145 -104 251 39 81 116 114 339 146 80 11 171 30 201 42 l55 22 3 -104 c2 -72
-2 -120 -13 -158z"/>
<path d="M22452 11844 c-116 -31 -227 -106 -294 -198 l-28 -39 0 106 0 107
-195 0 -195 0 0 -755 0 -755 203 2 202 3 5 490 c5 486 5 490 29 549 49 123
134 178 277 179 106 0 163 -25 205 -92 53 -82 53 -83 59 -621 l5 -505 203 -3
203 -2 -3 562 c-4 540 -5 566 -25 640 -28 100 -55 150 -111 210 -55 59 -139
104 -231 124 -84 17 -240 17 -309 -2z"/>
<path d="M23782 11840 c-113 -30 -187 -74 -277 -165 -114 -114 -177 -244 -206
-419 -15 -97 -6 -338 16 -421 70 -261 209 -417 428 -483 120 -35 290 -35 399
0 99 33 165 75 233 151 l55 60 0 -119 c0 -65 -4 -145 -10 -177 -19 -121 -80
-210 -176 -258 -43 -21 -62 -24 -164 -24 -99 0 -122 3 -165 23 -65 30 -109 73
-135 133 l-21 49 -211 0 -211 0 7 -52 c11 -86 66 -186 141 -257 151 -141 380
-203 662 -180 374 30 590 184 663 473 19 76 20 112 20 863 l0 783 -200 0 -200
0 0 -100 c0 -55 -3 -100 -7 -99 -5 0 -22 21 -39 47 -40 62 -136 134 -215 162
-93 33 -285 38 -387 10z m414 -321 c105 -39 175 -126 208 -255 66 -262 -14
-508 -192 -587 -79 -36 -152 -43 -230 -23 -175 45 -264 197 -263 451 1 166 41
278 131 358 28 25 70 52 93 60 65 23 185 21 253 -4z"/>
<path d="M25640 11854 c-318 -61 -537 -255 -622 -550 -19 -67 -23 -101 -22
-224 1 -171 20 -255 85 -380 140 -269 448 -417 796 -381 211 22 327 73 448
195 82 83 129 152 164 244 l21 52 -189 0 -189 0 -12 -30 c-17 -42 -73 -88
-150 -124 -89 -42 -215 -48 -318 -17 -128 39 -214 147 -228 290 l-7 61 563 0
563 0 -6 113 c-19 317 -164 565 -401 681 -110 54 -174 67 -331 71 -77 2 -151
1 -165 -1z m235 -309 c121 -32 193 -115 229 -267 l6 -28 -346 0 -347 0 7 43
c14 87 81 183 155 222 85 43 199 55 296 30z"/>
<path d="M16630 8610 l0 -1080 220 0 220 0 2 761 3 760 264 -761 264 -760 186
2 185 3 260 757 c144 416 264 760 269 764 4 4 7 -338 7 -759 l0 -767 220 0
220 0 0 1080 0 1080 -335 0 -334 0 -51 -157 c-28 -87 -134 -420 -237 -740
-102 -321 -189 -583 -192 -583 -3 0 -118 333 -256 740 l-250 740 -332 0 -333
0 0 -1080z"/>
<path d="M19832 9055 c-143 -33 -265 -99 -362 -196 -150 -151 -219 -355 -207
-609 17 -353 204 -600 524 -692 68 -20 101 -23 248 -23 196 0 248 11 385 78
121 59 241 178 299 297 66 135 84 219 84 390 0 171 -18 255 -84 390 -80 164
-254 303 -444 355 -84 24 -357 29 -443 10z m317 -304 c74 -23 120 -56 161
-116 114 -166 114 -504 0 -670 -112 -162 -392 -181 -524 -35 -81 90 -111 188
-111 370 0 182 30 280 112 371 82 91 226 122 362 80z"/>
<path d="M21660 9051 c-119 -38 -219 -110 -288 -206 l-21 -30 -1 108 0 107
-195 0 -195 0 0 -750 0 -750 204 0 205 0 4 473 c4 501 5 516 55 612 26 51 56
79 112 104 63 27 146 35 216 21 49 -10 67 -20 105 -59 82 -82 82 -81 87 -653
l3 -498 205 0 206 0 -5 548 c-4 599 -6 621 -66 748 -55 118 -155 196 -292 229
-90 21 -268 19 -339 -4z"/>
<path d="M23114 9055 c-309 -67 -535 -301 -589 -610 -26 -150 -15 -288 34
-433 39 -112 83 -184 166 -267 160 -159 351 -223 632 -212 233 9 354 57 494
197 70 70 93 101 132 180 26 52 47 98 47 103 0 4 -85 7 -190 7 -151 0 -190 -3
-190 -13 0 -25 -67 -92 -120 -121 -101 -55 -216 -70 -331 -42 -148 34 -236
139 -255 301 l-7 55 562 0 561 0 0 79 c0 240 -96 474 -253 616 -74 68 -210
136 -314 159 -88 20 -292 20 -379 1z m331 -314 c58 -26 88 -51 121 -103 22
-34 64 -145 64 -168 0 -7 -115 -10 -346 -10 l-347 0 7 42 c19 120 120 227 243
258 66 16 202 6 258 -19z"/>
<path d="M24063 9063 c19 -31 540 -1422 544 -1451 11 -84 -42 -179 -115 -203
-25 -8 -74 -10 -159 -6 l-123 7 0 -169 0 -168 98 -6 c206 -14 335 0 437 47 66
30 148 110 187 183 15 28 174 438 352 912 l324 861 -215 -2 -216 -3 -159 -495
c-88 -272 -164 -499 -168 -503 -4 -5 -84 219 -176 497 l-169 506 -223 0 c-123
0 -221 -3 -219 -7z"/>
</g>
</svg>
