<?xml version="1.0" standalone="no"?>
<!DOCTYPE svg PUBLIC "-//W3C//DTD SVG 20010904//EN"
 "http://www.w3.org/TR/2001/REC-SVG-20010904/DTD/svg10.dtd">
<svg version="1.0" xmlns="http://www.w3.org/2000/svg"
 width="225.000000pt" height="225.000000pt" viewBox="0 0 225.000000 225.000000"
 preserveAspectRatio="xMidYMid meet">

<g transform="translate(0.000000,225.000000) scale(0.100000,-0.100000)"
fill="#000000" stroke="none">
<path d="M1038 2045 c-94 -35 -174 -116 -202 -204 -9 -25 -27 -129 -41 -231
-14 -101 -27 -185 -29 -187 -1 -2 -44 33 -95 77 -105 91 -124 103 -151 95 -31
-10 -88 -81 -100 -127 -13 -48 -7 -105 17 -152 9 -17 69 -85 133 -151 142
-145 146 -156 129 -291 -21 -167 -1 -282 68 -385 21 -32 31 -39 47 -34 45 14
115 17 148 6 49 -16 94 -64 116 -124 18 -47 23 -52 52 -55 58 -6 75 4 87 51 7
23 21 55 33 70 46 59 142 83 220 55 30 -10 35 -9 53 13 38 46 80 150 89 222 9
66 3 120 -65 603 -83 587 -85 593 -167 673 -64 62 -121 85 -220 88 -55 2 -98
-2 -122 -12z m38 -260 c15 -23 15 -27 0 -50 -29 -44 -86 -28 -86 25 0 53 57
69 86 25z m226 0 c25 -55 -34 -101 -76 -59 -33 32 -11 84 35 84 22 0 32 -6 41
-25z m-54 -161 c62 -23 70 -29 60 -42 -23 -27 -111 -62 -158 -62 -48 0 -135
35 -159 63 -7 10 -11 17 -9 17 3 0 36 11 74 25 88 31 103 31 192 -1z m-33
-323 c82 -37 146 -142 171 -279 17 -97 17 -137 -1 -236 -34 -190 -149 -314
-270 -292 -50 10 -124 80 -159 151 -94 193 -65 475 62 609 64 67 123 81 197
47z"/>
</g>
</svg>
