<?xml version="1.0" standalone="no"?>
<!DOCTYPE svg PUBLIC "-//W3C//DTD SVG 20010904//EN"
 "http://www.w3.org/TR/2001/REC-SVG-20010904/DTD/svg10.dtd">
<svg version="1.0" xmlns="http://www.w3.org/2000/svg"
 width="1024.000000pt" height="1024.000000pt" viewBox="0 0 1024.000000 1024.000000"
 preserveAspectRatio="xMidYMid meet">

<defs>
  <linearGradient id="greenGradient" x1="0%" y1="0%" x2="100%" y2="100%">
    <stop offset="0%" style="stop-color:#10B981;stop-opacity:1" />
    <stop offset="100%" style="stop-color:#059669;stop-opacity:1" />
  </linearGradient>
  <linearGradient id="orangeGradient" x1="0%" y1="0%" x2="100%" y2="100%">
    <stop offset="0%" style="stop-color:#F59E0B;stop-opacity:1" />
    <stop offset="100%" style="stop-color:#D97706;stop-opacity:1" />
  </linearGradient>
</defs>

<g transform="translate(0.000000,1024.000000) scale(0.100000,-0.100000)"
fill="url(#greenGradient)" stroke="none">
<path d="M2260 7189 c-220 -13 -417 -67 -635 -175 -173 -85 -294 -173 -446
-324 -526 -524 -650 -1319 -308 -1980 33 -63 86 -151 117 -195 l57 -80 3 287
2 287 -29 118 c-38 150 -51 248 -51 378 0 90 16 252 26 264 2 2 30 -20 64 -49
33 -29 66 -50 73 -47 6 2 93 55 192 116 99 61 187 111 195 110 8 0 89 -37 180
-82 l165 -82 47 -155 c26 -85 59 -194 73 -242 l26 -88 379 0 379 0 78 237 78
237 173 54 174 53 178 -131 c98 -71 181 -130 185 -130 4 0 39 25 77 56 38 31
72 53 76 50 11 -11 6 -330 -7 -396 -7 -36 -23 -112 -37 -170 -23 -101 -24
-117 -22 -390 l3 -285 57 80 c206 289 323 693 304 1050 -33 632 -383 1170
-942 1450 -192 95 -422 160 -609 171 -49 2 -103 6 -120 7 -16 2 -86 0 -155 -4z
m-256 -371 c-40 -62 -42 -73 -11 -90 13 -7 101 -66 195 -131 l172 -118 0 -173
0 -173 -235 -157 -235 -156 -168 80 c-96 46 -170 87 -174 97 -4 10 -21 104
-38 208 -42 265 -36 243 -81 262 -21 8 -39 19 -39 23 0 14 130 129 205 182 90
64 222 131 333 168 48 16 92 30 99 30 6 0 -4 -24 -23 -52z m1025 -50 c146 -73
302 -194 409 -318 l64 -75 -62 -11 c-34 -6 -65 -15 -69 -20 -4 -5 -31 -101
-60 -214 -29 -113 -57 -209 -61 -213 -4 -4 -83 -32 -177 -61 l-169 -52 -232
160 -232 160 2 180 3 180 185 118 c102 65 189 124 194 132 6 9 -1 31 -22 70
-18 30 -32 58 -32 60 0 10 180 -57 259 -96z"/>
<path d="M8162 6958 c-14 -19 -92 -147 -92 -154 0 -2 62 -4 138 -3 l139 1 42
69 c59 95 54 99 -99 99 -82 0 -121 -4 -128 -12z" fill="url(#orangeGradient)"/>
<path d="M4697 6708 c-17 -10 -12 -1238 5 -1249 21 -14 232 -11 251 4 15 11
17 42 19 274 l3 262 183 -275 182 -275 157 3 c123 2 157 6 161 17 3 9 0 11 -8
6 -9 -5 -11 -4 -6 3 4 6 -68 121 -162 259 -93 136 -187 275 -209 308 l-41 60
174 240 c265 364 252 344 230 361 -14 10 -52 12 -160 10 l-141 -4 -180 -267
-180 -267 -5 260 c-3 143 -9 264 -13 269 -10 10 -244 11 -260 1z" fill="url(#orangeGradient)"/>
<path d="M6145 6705 c-13 -10 -91 -246 -304 -915 -74 -232 -97 -318 -89 -327
15 -19 251 -18 267 1 6 7 24 56 39 107 l28 94 210 0 209 0 29 -100 c16 -55 34
-103 40 -107 6 -4 66 -8 132 -8 89 0 125 4 133 13 8 10 -10 76 -73 268 -47
140 -137 414 -201 609 -64 195 -120 359 -124 363 -13 13 -280 15 -296 2z m216
-570 l66 -225 -133 0 c-74 0 -134 3 -134 7 0 19 123 443 129 443 3 0 36 -101
72 -225z" fill="url(#orangeGradient)"/>
<path d="M7020 6706 c-6 -6 -10 -246 -10 -623 0 -595 1 -613 19 -623 12 -6
135 -10 330 -10 268 0 312 2 325 16 20 20 23 223 4 242 -9 9 -68 12 -205 12
l-193 0 7 488 c5 413 4 490 -8 498 -19 12 -257 11 -269 0z" fill="url(#orangeGradient)"/>
<path d="M7904 6707 c-12 -7 -14 -99 -14 -622 0 -575 1 -615 18 -624 9 -5 166
-9 355 -9 283 0 340 3 352 15 18 17 21 203 5 234 -10 18 -23 19 -230 19 l-220
0 0 120 0 120 188 2 187 3 3 119 c2 78 -1 123 -9 132 -9 11 -50 14 -190 14
l-179 0 0 110 0 110 213 2 212 3 3 123 c2 105 0 123 -13 129 -25 9 -664 9
-681 0z m559 -14 c-7 -2 -19 -2 -25 0 -7 3 -2 5 12 5 14 0 19 -2 13 -5z" fill="url(#orangeGradient)"/>
<path d="M8867 6708 c-17 -10 -14 -1238 3 -1248 7 -4 154 -8 326 -9 295 0 314
1 326 18 13 19 16 206 4 238 -4 10 -49 13 -196 13 l-190 0 0 489 c0 376 -3
492 -12 497 -16 10 -246 11 -261 2z" fill="url(#orangeGradient)"/>
<path d="M1634 5373 c-12 -2 -34 -18 -50 -34 -28 -30 -29 -33 -32 -159 -3
-103 0 -134 13 -159 33 -65 126 -78 176 -25 22 24 24 34 27 156 4 139 -4 177
-42 201 -26 17 -64 25 -92 20z"/>
<path d="M3047 5359 c-39 -30 -49 -79 -45 -212 3 -116 3 -117 34 -148 55 -54
150 -38 175 29 6 15 9 85 7 160 l-3 134 -33 29 c-40 36 -96 39 -135 8z"/>
<path d="M1278 5170 c-52 -16 -98 -52 -126 -98 l-27 -47 0 -1025 c0 -955 1
-1028 17 -1062 27 -56 75 -106 132 -136 l51 -27 1044 -3 c1162 -3 1108 -6
1190 65 24 20 54 59 67 87 l24 51 0 1018 c0 1103 2 1056 -53 1115 -45 48 -95
66 -202 70 l-101 4 -2 -81 c-2 -130 -53 -197 -157 -208 -124 -15 -204 69 -205
215 l0 72 -545 0 -545 0 0 -82 c0 -105 -23 -152 -90 -185 -74 -38 -156 -28
-214 25 -42 39 -56 82 -56 167 l0 75 -87 -1 c-49 0 -100 -4 -115 -9z m717
-775 l0 -275 -347 0 -348 0 0 275 0 275 348 0 347 0 0 -275z m715 0 l0 -275
-315 0 -315 0 0 275 0 275 315 0 315 0 0 -275z m760 0 l0 -275 -337 0 -338 0
3 275 3 275 334 0 335 0 0 -275z m-1477 -622 l-2 -258 -346 -3 -345 -2 0 260
0 260 348 0 347 0 -2 -257z m717 -3 l0 -260 -315 0 -315 0 0 260 0 260 315 0
315 0 0 -260z m760 0 l0 -260 -335 0 -335 0 0 260 0 260 335 0 335 0 0 -260z
m-1478 -585 l-3 -235 -281 0 c-268 0 -284 1 -326 21 -72 35 -82 68 -82 277 l0
172 348 0 347 0 -3 -235z m718 0 l0 -235 -315 0 -315 0 0 235 0 235 315 0 315
0 0 -235z m760 67 c0 -154 -2 -171 -22 -212 -44 -85 -41 -85 -364 -88 l-284
-3 0 236 0 235 335 0 335 0 0 -168z"/>
<path d="M1577 4504 c-4 -4 -7 -58 -7 -121 l0 -113 125 0 126 0 -3 118 -3 117
-116 3 c-63 1 -118 -1 -122 -4z"/>
<path d="M2264 4497 c-2 -7 -3 -60 -2 -118 l3 -104 133 -3 133 -3 -3 118 -3
118 -128 3 c-100 2 -129 0 -133 -11z"/>
<path d="M2313 3890 c-42 -25 -63 -68 -63 -127 0 -93 90 -161 179 -134 41 12
100 70 102 99 0 9 2 26 4 37 6 33 -31 103 -67 125 -43 26 -113 26 -155 0z"/>
<path d="M2972 3768 l3 -113 125 0 125 0 3 113 3 112 -131 0 -131 0 3 -112z"/>
<path d="M2267 3284 c-4 -4 -7 -58 -7 -121 l0 -113 135 0 136 0 -3 118 -3 117
-126 3 c-69 1 -128 -1 -132 -4z"/>
<path d="M4900 5167 c-156 -45 -229 -129 -238 -274 -10 -164 73 -256 285 -314
92 -25 109 -33 146 -67 37 -35 37 -81 -1 -123 -34 -38 -95 -52 -167 -38 -43 8
-67 21 -142 74 -11 8 -29 -6 -78 -60 -35 -38 -64 -76 -65 -82 0 -21 109 -100
169 -123 31 -12 88 -24 128 -27 189 -15 353 71 399 209 21 64 16 186 -11 242
-40 84 -135 147 -282 186 -113 31 -152 60 -153 113 0 18 10 39 29 58 26 26 36
29 91 29 69 0 122 -19 163 -58 23 -22 29 -24 40 -12 7 8 37 43 66 78 l53 62
-38 37 c-22 20 -68 50 -103 66 -52 25 -79 30 -155 33 -56 3 -108 -1 -136 -9z" fill="url(#orangeGradient)"/>
<path d="M5762 5162 c-14 -10 -322 -960 -322 -996 0 -14 16 -16 109 -16 77 0
112 4 118 12 4 7 17 47 29 88 l21 75 169 0 169 0 20 -70 c33 -115 19 -105 150
-105 89 0 115 3 115 13 0 21 -321 980 -332 995 -12 14 -224 17 -246 4z m177
-455 c28 -96 51 -179 51 -185 0 -18 -210 -17 -210 1 -1 21 95 357 101 357 4 0
29 -78 58 -173z" fill="url(#orangeGradient)"/>
<path d="M8011 3924 c-83 -22 -148 -62 -226 -139 -116 -115 -168 -246 -168
-420 0 -252 145 -448 382 -519 77 -23 213 -21 293 4 69 21 175 89 170 109 -1
7 2 9 9 6 12 -8 79 52 79 71 0 11 -161 134 -175 134 -4 0 -26 -16 -48 -36
-146 -133 -339 -89 -426 95 -22 48 -26 69 -26 151 0 83 3 102 27 150 91 184
268 229 407 104 l51 -46 80 57 c125 91 123 81 39 158 -73 68 -144 109 -220
126 -62 15 -185 12 -248 -5z" fill="url(#orangeGradient)"/>
<path d="M6225 3905 c-7 -5 -65 -176 -130 -380 -64 -203 -137 -433 -161 -509
-25 -77 -42 -146 -40 -153 7 -18 231 -19 242 -1 4 6 17 45 29 85 l21 74 175 0
174 1 25 -74 c14 -40 29 -79 33 -86 12 -17 234 -17 240 1 3 9 -303 943 -338
1029 -6 14 -25 17 -132 20 -74 2 -131 -1 -138 -7z m193 -480 c29 -99 52 -186
52 -192 0 -10 -30 -13 -116 -13 -105 0 -115 2 -110 18 3 9 28 99 57 200 29
100 55 179 59 175 4 -4 30 -89 58 -188z" fill="url(#orangeGradient)"/>
<path d="M4706 3888 c-3 -13 -10 -120 -16 -238 -16 -321 -39 -690 -46 -733 -9
-60 3 -67 122 -67 71 0 105 4 111 13 4 6 10 153 13 325 l5 314 109 -259 c60
-142 115 -268 123 -280 12 -20 22 -23 76 -23 34 0 68 4 75 8 11 8 189 419 223
518 l14 39 6 -70 c4 -38 10 -176 14 -305 4 -129 11 -245 16 -257 8 -22 14 -23
113 -23 75 0 107 4 115 13 8 10 8 36 2 88 -5 41 -21 261 -36 489 -14 228 -29
426 -33 440 -7 25 -9 25 -121 28 -66 1 -119 -2 -124 -7 -9 -9 -108 -256 -220
-548 -17 -46 -34 -83 -37 -83 -3 0 -52 121 -109 268 -57 147 -114 291 -127
320 l-23 52 -120 0 c-117 0 -121 -1 -125 -22z m171 -600 c-3 -8 -6 -5 -6 6 -1
11 2 17 5 13 3 -3 4 -12 1 -19z" fill="url(#orangeGradient)"/>
<path d="M6792 3798 l3 -113 132 -3 133 -3 2 -412 3 -412 109 -3 c61 -1 114 2
119 7 6 6 9 167 8 415 l-2 406 119 0 c90 0 122 3 131 14 8 9 11 48 9 112 l-3
99 -383 3 -383 2 3 -112z" fill="url(#orangeGradient)"/>
<path d="M8695 3898 c-3 -7 -4 -245 -3 -528 l3 -515 109 -3 c71 -2 113 1 122
9 11 9 14 53 14 215 l0 204 173 -2 172 -3 1 -201 c0 -110 4 -206 8 -212 8 -14
222 -17 230 -3 4 6 10 972 7 1039 -1 10 -29 12 -123 10 l-123 -3 3 -202 4
-203 -176 0 -176 0 -2 203 -3 202 -118 3 c-88 2 -119 -1 -122 -10z m822 -130
c-3 -8 -6 -5 -6 6 -1 11 2 17 5 13 3 -3 4 -12 1 -19z m-210 -60 c-3 -8 -6 -5
-6 6 -1 11 2 17 5 13 3 -3 4 -12 1 -19z m210 -430 c-3 -7 -5 -2 -5 12 0 14 2
19 5 13 2 -7 2 -19 0 -25z m0 -190 c-3 -8 -6 -5 -6 6 -1 11 2 17 5 13 3 -3 4
-12 1 -19z"/>
</g>
</svg>
